<?xml version="1.0" encoding="UTF-8" standalone="no"?>
<!-- Created with Inkscape (http://www.inkscape.org/) -->

<svg
   version="1.1"
   id="svg2"
   width="1200"
   height="255"
   viewBox="0 0 1200 255"
   xmlns:xlink="http://www.w3.org/1999/xlink"
   xmlns="http://www.w3.org/2000/svg"
   xmlns:svg="http://www.w3.org/2000/svg">
  <defs
     id="defs6">
    <linearGradient
       id="linearGradient6232">
      <stop
         id="stop6234"
         style="stop-color:#279e64;stop-opacity:1"
         offset="0" />
      <stop
         id="stop6236"
         style="stop-color:#146daf;stop-opacity:1"
         offset="1" />
    </linearGradient>
    <linearGradient
       id="linearGradient6224">
      <stop
         id="stop6226"
         style="stop-color:#e5e975;stop-opacity:1"
         offset="0" />
      <stop
         id="stop6228"
         style="stop-color:#e13e28;stop-opacity:1"
         offset="1" />
    </linearGradient>
    <linearGradient
       x1="766.43481"
       y1="19.913881"
       x2="766.43481"
       y2="-108.08125"
       id="linearGradient6230"
       xlink:href="#linearGradient6224"
       gradientUnits="userSpaceOnUse" />
    <linearGradient
       x1="699.17328"
       y1="16.676712"
       x2="699.17328"
       y2="-27.783451"
       id="linearGradient6238"
       xlink:href="#linearGradient6232"
       gradientUnits="userSpaceOnUse" />
  </defs>
  <g
     id="g8"
     style="display:inline"
     transform="translate(-6.9219998,-9)" />
  <g
     id="layer1"
     style="display:inline;opacity:1"
     transform="translate(-6.9219998,-9)">
    <g
       id="layer2"
       style="display:inline">
      <g
         id="layer3"
         style="display:inline" />
    </g>
    <g
       id="g3889">
      <g
         transform="matrix(1.9351275,0,0,1.9351275,-1757.5015,209.43037)"
         id="g6286"
         style="fill:#898989;fill-opacity:1">
        <path
           d="m 965.59072,-48.281229 c -1.7143,0.04534 -2.9683,0.54543 -3.75,1.5 -0.7814,0.954699 -1.5894,2.08557 -2.4062,3.40625 l -30.2188,42.53125 -5.0937,7.15625 c -0.9999,1.5313613 -2.0921,2.9624821 -3.2813,4.28125 -1.1885,1.318781 -2.7123,2.134385 -4.5624,2.4375 -1.0533,0.08661 -2.0456,0.3022 -2.9688,0.625 -0.9231,0.322809 -1.4075,1.092144 -1.4688,2.3125 0.02,0.568403 0.1763,0.966435 0.4688,1.21875 0.084,0.07272 0.1726,0.139942 0.2812,0.1875 l 6.4376,5.5625 c 0.079,0.06219 0.153,0.113944 0.25,0.15625 0.486,0.212577 1.0481,0.304868 1.6874,0.28125 1.75,-0.02362 3.527,-0.11591 5.3126,-0.28125 1.7853,-0.165341 3.5466,-0.257632 5.3437,-0.28125 1.6061,0.01968 3.2379,0.112214 4.8437,0.25 1.6064,0.137783 3.2061,0.199066 4.8126,0.21875 0.7457,0.0098 1.4151,-0.136104 2.0312,-0.46875 0.6161,-0.332645 0.9626,-0.894267 1,-1.6875 -0.051,-0.587213 -0.2593,-1.036311 -0.625,-1.375 l -6.7188,-5.78125 c -0.3509,-0.313619 -0.8373,-0.502477 -1.4687,-0.59375 -1.3192,-0.190713 -2.6498,-0.454067 -3.9687,-0.78125 -0.2952,-0.07316 -0.5476,-0.206591 -0.7813,-0.34375 0.5535,-1.334464 1.3709,-2.8943784 2.5313,-4.71875 1.9838,-3.119769 3.4461,-5.3281014 4.3437,-6.59375 h 18.5625 c 0.017,0.3348192 0.045,0.6645508 0.062,1 0.1023,2.0116376 0.1796,4.0120085 0.1875,6 -0.1038,2.772567 -0.838,4.397942 -2.1875,4.875 -1.3496,0.477066 -2.713,0.75535 -4.0625,0.8125 -1.3496,0.05716 -2.0838,0.830916 -2.1875,2.34375 0.016,0.649545 0.2313,1.095741 0.625,1.34375 l 6.6875,5.71875 c 0.3936,0.248008 0.8859,0.355559 1.4688,0.34375 2.6019,-0.02362 5.2179,-0.11591 7.8437,-0.28125 2.6257,-0.165341 5.2419,-0.257632 7.8437,-0.28125 1.7482,0.01575 3.4709,0.07727 5.2188,0.1875 1.7478,0.110225 3.5021,0.171752 5.25,0.1875 0.7833,0.02559 1.4606,-0.07409 2.0312,-0.34375 0.5707,-0.26966 0.8786,-0.846783 0.9063,-1.71875 -0.01,-0.777483 -0.2329,-1.292836 -0.6563,-1.5625 l -6.5312,-5.625 c -0.1263,-0.98912 -0.2023,-2.086944 -0.1875,-3.3125 l -2.4687,-47.125 c 0.01,-1.6986 -0.146,-3.137594 -0.4688,-4.28125 -0.1123,-0.397774 -0.3232,-0.735428 -0.625,-1 l -6.6875,-5.75 c -0.5681,-0.468499 -1.4644,-0.72129 -2.6563,-0.75 z m -10.3124,23.21875 0.5624,16.375 h -11.7812 z"
           id="path6185"
           style="font-style:italic;font-variant:normal;font-weight:bold;font-stretch:normal;font-size:94.4806px;line-height:0%;font-family:'Garamond Book ITC';-inkscape-font-specification:'Garamond Book ITC Bold Italic';letter-spacing:0px;word-spacing:0px;fill:#898989;fill-opacity:1;stroke:none" />
        <path
           d="m 1114.0312,-46.3125 c -0.8463,0.004 -1.6773,0.05027 -2.5,0.125 -0.8227,0.07486 -1.6536,0.182898 -2.5,0.28125 -2.0844,0.226419 -4.2002,0.357105 -6.3437,0.40625 -2.1435,0.04927 -4.2745,0.0724 -6.4063,0.0625 -1.5588,-0.01568 -3.1286,-0.07721 -4.6874,-0.1875 -1.559,-0.110164 -3.1287,-0.171691 -4.6876,-0.1875 -0.7419,0.002 -1.3802,0.209747 -1.9687,0.625 -0.5886,0.415378 -0.9041,1.00752 -0.9375,1.8125 0.2677,1.425122 1.3136,2.086664 3.1875,2 1.7626,-0.08141 2.8148,0.649412 3.1563,2.15625 -0.3961,0.397291 -0.6291,0.906365 -0.6563,1.5625 0.067,0.35628 0.1764,0.675706 0.3437,0.9375 -0.063,0.237768 -0.1155,0.486619 -0.1874,0.71875 l -11.9063,41.28125 c -0.4547,1.926996 -0.9703,3.6121002 -1.5313,5.03125 -0.5608,1.419165 -1.8301,2.34995 -3.8437,2.8125 -0.9232,0.135819 -2.008,0.37454 -3.25,0.6875 -1.2421,0.312966 -1.9111,1.028406 -2.0313,2.15625 0.022,0.512226 0.1776,0.896944 0.4733,1.172042 l 5.6296,5.687301 c 0.095,0.102814 0.2065,0.191531 0.3347,0.265657 0.4763,0.275564 1.0306,0.382872 1.625,0.375 2.0333,-0.03149 4.0875,-0.154549 6.1562,-0.375 2.0687,-0.220452 4.1382,-0.343506 6.2188,-0.375 2.2242,0.01968 4.4395,0.112223 6.6874,0.25 2.2479,0.137783 4.4946,0.199066 6.7188,0.21875 0.9152,0.06692 1.9694,0.05191 3.1562,-0.09375 1.1869,-0.145656 1.8252,-0.807442 1.9376,-1.96875 -0.041,-0.572441 -0.2013,-1.019483 -0.479,-1.339877 l -5.7613,-5.796589 c -0.1729,-0.174844 -0.3848,-0.306711 -0.6347,-0.394784 0.03,-0.154128 0.057,-0.313696 0.094,-0.46875 0.1869,-0.783382 0.4102,-1.552719 0.6563,-2.3125 L 1112,-30.65625 c 0.4369,-1.706478 0.9602,-2.945142 1.5625,-3.71875 0.6023,-0.773492 1.7716,-1.319611 3.5313,-1.65625 0.8915,-0.112135 1.8533,-0.366117 2.875,-0.75 1.0215,-0.383763 1.5676,-1.083942 1.6562,-2.09375 -0.014,-0.566814 -0.2062,-0.997748 -0.5625,-1.28125 l -5.6875,-5.71875 c -0.3563,-0.283375 -0.8103,-0.437439 -1.3438,-0.4375 z"
           transform="translate(2.44e-4)"
           id="path4781"
           style="font-style:normal;font-variant:normal;font-weight:normal;font-stretch:normal;font-size:94.4806px;line-height:0%;font-family:Flanker;-inkscape-font-specification:Flanker;letter-spacing:0px;word-spacing:0px;fill:#898989;fill-opacity:1;stroke:none" />
        <path
           d="m 1002.625,-46.09375 c -0.592,0.02955 -1.1666,0.123592 -1.7188,0.3125 -0.7359,0.252007 -1.13629,0.83676 -1.18745,1.75 0.072,0.35998 0.19615,0.676103 0.37235,0.948412 l 5.5871,8.301941 c -0.1872,0.530581 -0.3701,1.047709 -0.5532,1.530897 -2.301,6.383306 -4.6171,12.761215 -6.90625,19.15625 C 995.92958,-7.6986527 993.56767,-1.336002 991.125,5 c -0.91922,2.7025125 -1.80373,4.6029637 -2.6875,5.6875 -0.88378,1.08455 -2.76897,1.861516 -5.625,2.34375 -0.78732,0.118102 -1.46413,0.364456 -2.0625,0.71875 -0.59837,0.354301 -0.93725,0.969818 -0.96875,1.84375 0.0162,0.455838 0.12345,0.816323 0.31495,1.0814 l 3.80797,5.666613 c 0.13907,0.213443 0.32831,0.370364 0.56458,0.470737 0.52358,0.222424 1.12359,0.306837 1.8125,0.28125 1.65732,-0.01181 3.31906,-0.04233 5,-0.125 1.68094,-0.08267 3.37391,-0.144443 5.03125,-0.15625 1.55696,0.01968 3.07236,0.112214 4.5937,0.25 1.5215,0.137783 3.0529,0.199066 4.5626,0.21875 0.7047,0.0059 1.3662,-0.171046 2,-0.53125 0.6336,-0.360203 0.9879,-0.921581 1.0312,-1.71875 -0.038,-0.478685 -0.1599,-0.876663 -0.3646,-1.194174 l -3.8522,-5.731584 c -0.3631,-0.553275 -0.9807,-0.858843 -1.8457,-0.917992 -1.3648,-0.09331 -2.72907,-0.310987 -4.09375,-0.65625 -0.96668,-0.244554 -1.60787,-0.942128 -1.9375,-2.0625 0.50563,-2.5966968 1.40645,-5.8060801 2.6875,-9.625 1.96885,-5.8693563 4.07115,-11.550003 6.25005,-17.0625 2.1788,-5.512419 4.1328,-10.446166 4.898,-12.354462 l 0.727,40.948212 c -0.026,1.387668 0.1204,2.472273 0.4374,3.28125 0.063,0.161493 0.151,0.307616 0.2631,0.438212 l 3.7568,5.637387 c 0.4229,0.589162 1.2936,0.878004 2.6048,0.893151 1.5608,-0.06102 2.7685,-0.607377 3.6563,-1.625 0.8877,-1.017619 1.7112,-2.132988 2.4687,-3.375 l 21.4063,-31.5 -5.031,18.875 c -0.305,1.617971 -0.7434,3.2646805 -1.3437,4.90625 -0.6004,1.641584 -1.793,2.641528 -3.5625,3.03125 -1.0137,0.07086 -2.1446,0.240186 -3.4062,0.5 -1.2618,0.259823 -1.9463,1.044663 -2.0626,2.34375 0.022,0.698754 0.2601,1.183344 0.7188,1.46875 l 6.25,5.71875 c 0.4586,0.285406 1.0206,0.416089 1.6562,0.40625 2.1771,-0.03149 4.3618,-0.154548 6.5626,-0.375 2.2002,-0.220451 4.3857,-0.343507 6.5624,-0.375 2.2677,0.03149 4.5449,0.154549 6.8126,0.375 2.2672,0.220452 4.5137,0.343506 6.7812,0.375 0.8404,0.02362 1.6181,-0.09919 2.2812,-0.40625 0.6635,-0.307059 0.9938,-0.922577 1.0313,-1.84375 -0.046,-0.640073 -0.249,-1.127556 -0.6071,-1.462922 l -5.917,-5.383681 c 0.056,-0.730608 0.1451,-1.466476 0.3054,-2.215897 0.2518,-1.179012 0.5444,-2.3098826 0.8437,-3.40625 L 1073.0625,-30 c 0.3365,-1.698605 0.7751,-3.014058 1.3125,-3.96875 0.5373,-0.954577 1.6989,-1.546961 3.5,-1.78125 0.9625,-0.05506 1.9089,-0.25514 2.8125,-0.59375 0.9034,-0.338491 1.4039,-1.061805 1.4687,-2.15625 -0.012,-0.608149 -0.2276,-1.046714 -0.5937,-1.3125 l -6.25,-5.71875 c -0.3662,-0.265661 -0.8275,-0.380842 -1.4063,-0.375 -1.9879,0.01187 -3.9884,0.04239 -6,0.125 -2.0116,0.08273 -4.012,0.144502 -6,0.15625 -1.0531,-0.05308 -2.6459,-0.122483 -4.75,-0.1875 -2.104,-0.06489 -3.4964,0.189093 -4.2187,0.75 -0.1378,0.196896 -0.292,0.412241 -0.4063,0.65625 -0.1141,0.244132 -0.2373,0.459478 -0.375,0.65625 L 1029.75,-9.8125 1029,-37.375 c 0.049,-0.734123 0.011,-1.341523 -0.094,-1.875 -0.029,-0.148925 -0.088,-0.278467 -0.1759,-0.388398 L 1025.0618,-45 c -0.025,-0.127824 -0.072,-0.239573 -0.1403,-0.335965 -0.2173,-0.305807 -0.6522,-0.457032 -1.2972,-0.476535 -2.177,0.01581 -4.3619,0.03083 -6.5625,0.09375 -2.2006,0.06305 -4.3856,0.07879 -6.5625,0 -1.2302,-0.05702 -2.438,-0.157426 -3.6562,-0.25 -1.2184,-0.09245 -2.4421,-0.115096 -3.625,-0.125 -0.2018,-0.0079 -0.3965,-0.0099 -0.5938,0 z"
           transform="translate(2.44e-4)"
           id="path4779"
           style="font-style:italic;font-variant:normal;font-weight:bold;font-stretch:normal;font-size:94.4806px;line-height:0%;font-family:'Garamond Book ITC';-inkscape-font-specification:'Garamond Book ITC Bold Italic';letter-spacing:0px;word-spacing:0px;fill:#898989;fill-opacity:1;stroke:none" />
        <path
           d="m 1164.5627,-47.15625 c -7.8943,0.01814 -16.1521,1.627676 -24.7813,4.8125 -8.6291,3.184944 -15.9738,7.834058 -22.0624,13.96875 -6.0888,6.134783 -9.2897,13.632387 -9.5626,22.5 0.1149,5.63086994 1.7646,10.2939822 4.9063,13.96875 l 4.4375,5.71875 c 3.1417,3.674786 7.1164,6.423062 11.9062,8.21875 4.7899,1.79569 9.6907,2.693912 14.75,2.6875 3.0824,-0.002 6.1752,-0.194425 9.2813,-0.5625 3.1059,-0.368077 6.1684,-0.914436 9.1563,-1.625 1.1395,-0.230293 2.1166,-0.514795 2.9374,-0.875 0.8207,-0.360201 1.4439,-1.122153 1.875,-2.25 0.8325,-2.367886 1.5944,-4.760554 2.25,-7.1875 0.6553,-2.4269245 1.309,-4.834856 2,-7.25 1.136,-3.4373951 2.4994,-5.46639399 4.0626,-6.0625 1.5628,-0.5959667 2.95,-0.877579 4.1562,-0.84375 1.206,0.033823 1.841,-0.7021466 1.9062,-2.25 -0.018,-0.4230902 -0.1242,-0.7748792 -0.3317,-1.0407256 l -4.5082,-5.7754874 c -0.098,-0.125379 -0.2302,-0.222833 -0.3788,-0.308787 -0.4764,-0.275557 -0.9995,-0.413377 -1.5937,-0.40625 -2.3602,0.02831 -4.722,0.150885 -7.0938,0.34375 -2.3719,0.192923 -4.7803,0.28497 -7.1875,0.3125 -2.2676,-0.02359 -4.5451,-0.115881 -6.8125,-0.28125 -2.2676,-0.165311 -4.5139,-0.257602 -6.7812,-0.28125 -0.758,-0.02162 -1.4889,0.109063 -2.1876,0.40625 -0.6987,0.297244 -1.0758,0.905374 -1.125,1.78125 0.038,0.455202 0.1796,0.8186376 0.4044,1.1071824 l 4.4902,5.7649246 c 0.2933,0.3766221 0.8068,0.5621338 1.4492,0.627893 0.2189,0.022422 0.4373,0.06358 0.6562,0.09375 -0.267,1.47065286 -0.7181,3.2283796 -1.375,5.28125 -0.99,3.0942094 -1.7823,5.5715394 -2.4062,7.4375 -0.3681,1.446719 -0.8527,2.454294 -1.4688,3.0625 -0.616,0.608213 -1.701,0.923965 -3.25,0.90625 -4.2346,-0.09183 -7.691,-1.171939 -10.3437,-3.21875 -1.3369,-2.7859834 -2.0245,-6.0054822 -2.0313,-9.6875 0.043,-4.9365227 1.0588,-9.7218615 3.0626,-14.375 2.0036,-4.653068 4.7428,-8.730601 8.1874,-12.25 3.4032,-3.416953 7.5962,-6.356226 12.5938,-8.78125 4.9975,-2.424911 9.9135,-3.702215 14.7812,-3.8125 0.1702,-0.0017 0.3083,0.02787 0.4688,0.03125 0,0.0767 0,0.140422 0,0.21875 -0.01,0.56693 -0.039,1.120677 -0.094,1.6875 -0.055,0.566928 -0.087,1.151925 -0.094,1.71875 -0.03,0.942874 0.132,1.796872 0.4687,2.5625 0.08,0.182424 0.181,0.344533 0.3023,0.486265 l 4.4604,5.744554 c 0.3885,0.436683 0.9791,0.672891 1.7689,0.706681 1.1554,-0.08853 2.0093,-0.681153 2.5625,-1.75 0.553,-1.068749 0.9608,-2.107572 1.2188,-3.09375 0.246,-0.724289 0.7614,-2.308986 1.5624,-4.78125 0.8011,-2.47215 1.2707,-4.026327 1.375,-4.65625 -0.039,-0.301208 -0.1568,-0.575416 -0.3526,-0.823309 l -4.4461,-5.689865 c -0.4593,-0.605094 -1.378,-1.05579 -2.7634,-1.361826 -1.9358,-0.427426 -3.9588,-0.700119 -6.0938,-0.78125 -2.1352,-0.081 -3.5806,-0.114097 -4.3125,-0.09375 z"
           id="path4795"
           style="font-style:italic;font-variant:normal;font-weight:bold;font-stretch:normal;font-size:94.4806px;line-height:0%;font-family:'Garamond Book ITC';-inkscape-font-specification:'Garamond Book ITC Bold Italic';letter-spacing:0px;word-spacing:0px;fill:#898989;fill-opacity:1;stroke:none" />
        <path
           d="m 1218.6564,-48.28125 c -1.7143,0.04534 -2.9683,0.54543 -3.75,1.5 -0.7814,0.954699 -1.5894,2.08557 -2.4062,3.40625 l -30.2188,42.53125 -5.0937,7.15625 c -0.9999,1.5313613 -2.0921,2.9624821 -3.2813,4.28125 -1.1885,1.318781 -2.7123,2.134385 -4.5624,2.4375 -1.0533,0.08661 -2.0456,0.3022 -2.9688,0.625 -0.9231,0.322809 -1.4075,1.092144 -1.4688,2.3125 0.02,0.568403 0.1763,0.966435 0.4688,1.21875 0.084,0.07272 0.1726,0.139942 0.2812,0.1875 l 6.4376,5.5625 c 0.079,0.06219 0.153,0.113944 0.25,0.15625 0.486,0.212577 1.0481,0.304868 1.6874,0.28125 1.75,-0.02362 3.527,-0.11591 5.3126,-0.28125 1.7853,-0.165341 3.5466,-0.257632 5.3437,-0.28125 1.6061,0.01968 3.2379,0.112214 4.8437,0.25 1.6064,0.137783 3.2061,0.199066 4.8126,0.21875 0.7457,0.0098 1.4151,-0.136104 2.0312,-0.46875 0.6161,-0.332645 0.9626,-0.894267 1,-1.6875 -0.051,-0.587213 -0.2593,-1.036311 -0.625,-1.375 l -6.7188,-5.78125 c -0.3509,-0.313619 -0.8373,-0.502477 -1.4687,-0.59375 -1.3192,-0.190713 -2.6498,-0.454067 -3.9687,-0.78125 -0.2952,-0.07316 -0.5476,-0.206591 -0.7813,-0.34375 0.5535,-1.334464 1.3709,-2.8943784 2.5313,-4.71875 1.9838,-3.119769 3.4461,-5.3281014 4.3437,-6.59375 h 18.5625 c 0.017,0.3348192 0.045,0.6645508 0.062,1 0.1023,2.0116376 0.1796,4.0120085 0.1875,6 -0.1038,2.772567 -0.838,4.397942 -2.1875,4.875 -1.3496,0.477066 -2.713,0.75535 -4.0625,0.8125 -1.3496,0.05716 -2.0838,0.830916 -2.1875,2.34375 0.016,0.649545 0.2313,1.095741 0.625,1.34375 l 6.6875,5.71875 c 0.3936,0.248008 0.8859,0.355559 1.4688,0.34375 2.6019,-0.02362 5.2179,-0.11591 7.8437,-0.28125 2.6257,-0.165341 5.2419,-0.257632 7.8437,-0.28125 1.7482,0.01575 3.4709,0.07727 5.2188,0.1875 1.7478,0.110225 3.5021,0.171752 5.25,0.1875 0.7833,0.02559 1.4606,-0.07409 2.0312,-0.34375 0.5707,-0.26966 0.8786,-0.846783 0.9063,-1.71875 -0.01,-0.777483 -0.2329,-1.292836 -0.6563,-1.5625 l -6.5312,-5.625 c -0.1263,-0.98912 -0.2023,-2.086944 -0.1875,-3.3125 l -2.4687,-47.125 c 0.01,-1.6986 -0.146,-3.137594 -0.4688,-4.28125 -0.1123,-0.397774 -0.3232,-0.735428 -0.625,-1 l -6.6875,-5.75 c -0.5681,-0.468499 -1.4644,-0.72129 -2.6563,-0.75 z m -10.3124,23.21875 0.5624,16.375 h -11.7812 z"
           id="path4785"
           style="font-style:italic;font-variant:normal;font-weight:bold;font-stretch:normal;font-size:94.4806px;line-height:0%;font-family:'Garamond Book ITC';-inkscape-font-specification:'Garamond Book ITC Bold Italic';letter-spacing:0px;word-spacing:0px;fill:#898989;fill-opacity:1;stroke:none" />
      </g>
      <path
         d="m 137.35754,239.22723 c -0.0194,-1.50452 -0.4383,-2.5177 -1.25706,-3.03954 -0.81894,-0.52181 -1.92371,-0.84939 -3.31371,-0.9827 -4.70042,-0.7694 -7.50384,-2.56723 -8.41026,-5.39349 -0.9066,-2.82621 -1.3331,-6.45233 -1.2797,-10.87836 l -4.75364,-91.23197 c 0.0194,-3.28701 -0.28949,-6.03706 -0.91415,-8.25018 -0.62485,-2.21288 -2.75775,-3.36318 -6.39908,-3.45092 -3.31758,0.0877 -5.73243,1.05521 -7.24454,2.90242 -1.5123,1.84747 -3.05866,4.04905 -4.639271,6.60473 l -58.505484,82.27332 -9.872827,13.89505 c -1.934934,2.96337 -4.052737,5.72107 -6.35341,8.27304 -2.30048,2.55202 -5.2411,4.12129 -8.821473,4.70787 -2.037689,0.16758 -3.94979,0.56372 -5.7363,1.18838 -1.7863162,0.62468 -2.7385924,2.11779 -2.8566352,4.47934 0.050313,1.41694 0.5445449,2.33107 1.4854038,2.74244 0.940859,0.41137 2.0301424,0.5942 3.2680434,0.54849 3.386282,-0.0457 6.806619,-0.22854 10.261402,-0.54849 3.454784,-0.31995 6.92079,-0.50278 10.398408,-0.54849 3.108008,0.0381 6.21621,0.19041 9.324218,0.45708 3.108202,0.26662 6.216211,0.41897 9.324412,0.45707 1.443605,0.0194 2.761427,-0.2933 3.953659,-0.93701 1.192232,-0.64372 1.824439,-1.73306 1.896812,-3.26808 -0.196415,-2.25827 -1.570936,-3.57193 -4.123756,-3.94098 -2.552821,-0.36905 -5.105641,-0.87013 -7.658461,-1.50329 -2.553014,-0.63311 -3.927535,-2.47495 -4.12395,-5.5255 0.457077,-3.27188 2.605455,-7.9264 6.444748,-13.96361 3.839487,-6.03715 6.627619,-10.28033 8.364589,-12.72952 H 92.38131 c 0.197964,3.84709 0.396121,7.71698 0.594278,11.60968 0.197963,3.89278 0.304589,7.76267 0.319876,11.60968 -0.200866,5.36528 -1.607123,8.50949 -4.218577,9.43267 -2.611649,0.92317 -5.223103,1.44006 -7.834558,1.55065 -2.611648,0.11069 -4.017905,1.62967 -4.218578,4.55721 0.03096,1.25694 0.426502,2.12539 1.188362,2.60532 0.761666,0.47993 1.706396,0.70847 2.833801,0.68561 5.035395,-0.0457 10.093625,-0.22854 15.174883,-0.54849 5.081063,-0.31995 10.139293,-0.50278 15.174883,-0.54849 3.38222,0.0304 6.76462,0.15229 10.14703,0.36566 3.38222,0.21329 6.76463,0.33518 10.14704,0.36566 1.51578,0.0495 2.82606,-0.18674 3.93082,-0.70847 1.10438,-0.52182 1.68337,-1.62641 1.73697,-3.31379 z M 92.198634,192.6057 H 61.665999 l 29.069872,-42.41649 z"
         id="path6187"
         style="font-style:italic;font-variant:normal;font-weight:bold;font-stretch:normal;font-size:94.4806px;line-height:0%;font-family:'Garamond Book ITC';-inkscape-font-specification:'Garamond Book ITC Bold Italic';letter-spacing:0px;word-spacing:0px;fill:#000000;fill-opacity:1;stroke:none;stroke-width:1.93513" />
      <path
         d="m 401.95356,123.1304 c -0.0271,-1.09687 -0.3847,-1.91959 -1.07419,-2.46822 -0.68948,-0.54835 -1.55023,-0.8226 -2.58242,-0.82272 -1.63789,0.008 -3.25295,0.084 -4.84498,0.22854 -1.59222,0.14494 -3.20709,0.31245 -4.84498,0.50279 -4.03377,0.43815 -8.12444,0.70477 -12.27239,0.79986 -4.14794,0.0954 -8.28447,0.13353 -12.40958,0.11418 -3.01667,-0.0304 -6.03334,-0.1523 -9.05001,-0.36567 -3.01687,-0.21317 -6.03354,-0.33506 -9.05021,-0.36566 -1.43586,0.004 -2.7233,0.40769 -3.86212,1.21126 -1.13902,0.80381 -1.74084,1.98459 -1.80548,3.54232 0.51804,2.75779 2.58998,4.05284 6.21621,3.88512 3.62604,-0.16739 5.69818,1.40181 6.21621,4.70788 -0.0194,0.92187 -0.12578,1.86648 -0.3429,2.83386 -0.21712,0.96758 -0.4685,1.91219 -0.75412,2.83385 l -23.03653,79.89654 c -0.87991,3.72897 -1.86256,6.9666 -2.94817,9.71281 -1.08541,2.74628 -3.5765,4.56694 -7.47307,5.46204 -1.78651,0.26283 -3.88129,0.69705 -6.28472,1.30267 -2.40362,0.60563 -3.72144,1.9997 -3.95385,4.18223 0.0542,1.26457 0.54087,2.16347 1.46276,2.69674 0.9217,0.53324 1.95777,0.79226 3.10801,0.77701 3.93469,-0.061 7.90364,-0.30471 11.90684,-0.7313 4.0032,-0.42662 8.01781,-0.67039 12.04385,-0.73133 4.30411,0.0381 8.63105,0.19042 12.98102,0.45708 4.34978,0.26662 8.67673,0.41897 12.98084,0.45708 1.77103,0.12946 3.80504,0.0534 6.10184,-0.22856 2.29681,-0.28185 3.55367,-1.54642 3.77099,-3.7937 -0.16836,-2.34292 -1.3544,-3.58887 -3.55503,-3.73786 -2.20082,-0.149 -4.40164,-0.50108 -6.60226,-1.05634 -2.20082,-0.55527 -3.3857,-2.61378 -3.55503,-6.17558 0.0194,-1.47025 0.20958,-2.96335 0.57145,-4.47933 0.36167,-1.51594 0.78082,-3.00905 1.25686,-4.47932 l 23.03653,-80.2622 c 0.84546,-3.30226 1.85115,-5.70189 3.01667,-7.19893 1.16553,-1.4968 3.45092,-2.57091 6.85616,-3.22235 1.72536,-0.21701 3.5765,-0.69692 5.55343,-1.43979 1.97673,-0.74263 3.05092,-2.09099 3.22237,-4.0451 z"
         id="path4766"
         style="font-style:normal;font-variant:normal;font-weight:normal;font-stretch:normal;font-size:94.4806px;line-height:0%;font-family:Flanker;-inkscape-font-specification:Flanker;letter-spacing:0px;word-spacing:0px;fill:#000000;fill-opacity:1;stroke:none;stroke-width:1.93513" />
      <path
         d="m 522.22851,124.04453 c -0.25853,-1.9715 -2.26081,-3.37093 -6.00625,-4.19829 -3.74602,-0.82713 -7.68478,-1.3192 -11.81627,-1.4762 -4.13189,-0.15674 -6.90589,-0.21541 -8.32221,-0.17609 -15.27648,0.035 -31.26392,3.13419 -47.96233,9.29722 -16.69841,6.16329 -30.93882,15.18061 -42.72104,27.05202 -11.78241,11.87158 -17.93766,26.38734 -18.46576,43.5473 0.22216,10.89645 3.37332,19.90023 9.45291,27.01138 6.07959,7.11118 13.75392,12.4042 23.02298,15.87909 9.26888,3.47489 18.79861,5.20613 28.58919,5.19373 5.96464,-0.004 11.95231,-0.36187 17.96301,-1.07413 6.01032,-0.71228 11.90665,-1.75594 17.68862,-3.13096 2.20527,-0.44564 4.10227,-1.01699 5.69063,-1.71404 1.58816,-0.69703 2.79955,-2.13681 3.63378,-4.31934 1.61099,-4.58217 3.05073,-9.22146 4.3194,-13.9179 1.26809,-4.69642 2.57081,-9.38142 3.90799,-14.05503 2.1983,-6.6518 4.80976,-10.55441 7.83455,-11.70787 3.02442,-1.15335 5.7036,-1.69734 8.03775,-1.63193 2.33376,0.0656 3.56392,-1.39937 3.69029,-4.39467 -0.0542,-1.26451 -0.54087,-2.16344 -1.46257,-2.69674 -0.9219,-0.5332 -1.95796,-0.7922 -3.10801,-0.77703 -4.56709,0.0534 -9.14541,0.26668 -13.73515,0.63991 -4.58993,0.37332 -9.21391,0.58663 -13.87215,0.63991 -4.3881,-0.0457 -8.776,-0.22848 -13.16371,-0.5485 -4.38809,-0.31989 -8.77599,-0.50272 -13.1637,-0.54849 -1.46663,-0.0418 -2.87599,0.22479 -4.22806,0.79989 -1.35227,0.57519 -2.07601,1.71026 -2.17102,3.4052 0.17416,2.06647 1.39019,3.21537 3.64984,3.44668 2.25926,0.2314 4.51872,0.67605 6.77817,1.33398 2.25927,0.658 3.47588,2.6601 3.64985,6.00628 -0.20203,3.4281 -1.26093,8.13596 -3.17671,14.12359 -1.91597,5.98769 -3.47762,10.78696 -4.68494,14.39783 -0.71232,2.79959 -1.6646,4.78786 -2.85683,5.96482 -1.19223,1.17696 -3.2872,1.74831 -6.28471,1.71402 -10.71461,-0.23233 -18.81254,-3.69847 -24.2934,-10.39843 -5.48125,-6.69991 -8.23126,-15.23957 -8.25022,-25.619 0.0832,-9.55279 2.06439,-18.8314 5.942,-27.83582 3.87741,-9.00426 9.14889,-16.91164 15.81464,-23.72213 6.58562,-6.61223 14.71393,-12.26472 24.38492,-16.95744 9.6708,-4.69251 19.21601,-7.14548 28.63563,-7.35888 4.47537,-0.0457 7.22558,0.82283 8.25023,2.60532 1.02445,1.78269 1.44341,4.75368 1.25705,8.91294 -0.0193,1.09708 -0.0755,2.19405 -0.1819,3.29092 -0.10643,1.09708 -0.16835,2.19407 -0.1819,3.29093 -0.0581,1.8246 0.23976,3.47768 0.89132,4.95925 0.65117,1.48179 1.99957,2.26642 4.045,2.35395 2.23584,-0.17126 3.88883,-1.29116 4.95934,-3.3595 1.07013,-2.06817 1.85482,-4.05643 2.35389,-5.96482 0.47604,-1.40159 1.48928,-4.49445 3.03951,-9.2786 1.55023,-4.78393 2.42626,-7.78537 2.62829,-9.00436 z"
         id="path4768"
         style="font-style:italic;font-variant:normal;font-weight:bold;font-stretch:normal;font-size:94.4806px;line-height:0%;font-family:'Garamond Book ITC';-inkscape-font-specification:'Garamond Book ITC Bold Italic';letter-spacing:0px;word-spacing:0px;fill:#000000;fill-opacity:1;stroke:none;stroke-width:1.93513" />
      <path
         d="m 627.07198,239.22719 c -0.0194,-1.50452 -0.43831,-2.51769 -1.25706,-3.03954 -0.81895,-0.52183 -1.92371,-0.84939 -3.31371,-0.9827 -4.70043,-0.7694 -7.50385,-2.56723 -8.41026,-5.39349 -0.90661,-2.82621 -1.33311,-6.45233 -1.2797,-10.87835 l -4.75364,-91.23198 c 0.0194,-3.28701 -0.2895,-6.03705 -0.91416,-8.25018 -0.62485,-2.21288 -2.75775,-3.36318 -6.39908,-3.45091 -3.31758,0.0877 -5.73242,1.0552 -7.24453,2.90242 -1.5123,1.84746 -3.05866,4.04904 -4.63928,6.60472 l -58.50548,82.27332 -9.87283,13.89505 c -1.93493,2.96338 -4.05274,5.72107 -6.35341,8.27304 -2.30048,2.552 -5.2411,4.1213 -8.82147,4.70787 -2.03769,0.16758 -3.94979,0.56372 -5.7363,1.18838 -1.78632,0.62468 -2.73859,2.11779 -2.85663,4.47934 0.0503,1.41692 0.54454,2.33107 1.4854,2.74244 0.94086,0.41137 2.03014,0.59418 3.26804,0.54849 3.38628,-0.0457 6.80662,-0.22853 10.2614,-0.54849 3.45479,-0.31995 6.92079,-0.50278 10.39841,-0.54849 3.10801,0.0381 6.21621,0.19042 9.32422,0.45708 3.1082,0.26662 6.21621,0.41897 9.32441,0.45707 1.44361,0.0194 2.76143,-0.2933 3.95366,-0.937 1.19223,-0.64372 1.82444,-1.73309 1.89681,-3.26809 -0.19641,-2.25827 -1.57093,-3.57193 -4.12375,-3.94098 -2.55282,-0.36905 -5.10564,-0.87013 -7.65846,-1.50328 -2.55302,-0.63312 -3.92754,-2.47496 -4.12396,-5.52551 0.45708,-3.27187 2.60546,-7.9264 6.44475,-13.96361 3.83949,-6.03715 6.62762,-10.28032 8.36459,-12.72952 h 36.56578 c 0.19797,3.84707 0.39612,7.71696 0.59428,11.60968 0.19797,3.89278 0.30459,7.76267 0.31988,11.60968 -0.20087,5.36528 -1.60712,8.50949 -4.21858,9.43267 -2.61165,0.92317 -5.2231,1.44006 -7.83456,1.55065 -2.61164,0.11069 -4.0179,1.62967 -4.21857,4.55721 0.031,1.25694 0.4265,2.12539 1.18836,2.60532 0.76166,0.47993 1.70639,0.70847 2.8338,0.68561 5.03539,-0.0457 10.09362,-0.22853 15.17488,-0.54849 5.08107,-0.31995 10.13929,-0.50278 15.17488,-0.54849 3.38222,0.0304 6.76463,0.15229 10.14704,0.36566 3.38221,0.21329 6.76462,0.33518 10.14703,0.36566 1.51579,0.0495 2.82606,-0.18654 3.93083,-0.70847 1.10437,-0.52182 1.68336,-1.62641 1.73697,-3.31379 z m -45.15891,-46.62153 h -30.53264 l 29.06988,-42.41649 z"
         id="path4770"
         style="font-style:italic;font-variant:normal;font-weight:bold;font-stretch:normal;font-size:94.4806px;line-height:0%;font-family:'Garamond Book ITC';-inkscape-font-specification:'Garamond Book ITC Bold Italic';letter-spacing:0px;word-spacing:0px;fill:#000000;fill-opacity:1;stroke:none;stroke-width:1.93513" />
      <path
         d="m 324.46777,123.8617 c -0.0232,-1.17682 -0.38857,-2.02242 -1.09702,-2.53675 -0.70865,-0.51409 -1.6228,-0.76548 -2.74247,-0.75416 -3.84703,0.023 -7.71709,0.11436 -11.6096,0.27422 -3.8929,0.16004 -7.76276,0.25153 -11.6096,0.27425 -2.03808,-0.10275 -5.09287,-0.21699 -9.16438,-0.34279 -4.0719,-0.12559 -6.80681,0.35434 -8.20456,1.43978 -0.26666,0.38102 -0.51048,0.80762 -0.73128,1.27981 -0.22099,0.47242 -0.46482,0.89902 -0.73128,1.2798 l -50.2781,76.05713 -2.01118,-74.77732 c 0.0948,-1.42063 0.0426,-2.6471 -0.16061,-3.67945 -0.20184,-1.0321 -1.12373,-1.57297 -2.7653,-1.6226 -4.21277,0.0306 -8.44819,0.10682 -12.70663,0.22854 -4.25844,0.1221 -8.49405,0.10682 -12.70663,-0.0457 -2.38059,-0.1103 -4.74977,-0.25509 -7.10753,-0.43424 -2.35776,-0.179 -4.68126,-0.27793 -6.97033,-0.29709 -1.56164,-0.0608 -3.05479,0.15249 -4.47943,0.63989 -1.42445,0.48767 -2.18629,1.61512 -2.28529,3.38235 0.5789,2.89494 2.89486,4.32708 6.94759,4.29651 4.05255,-0.0304 6.36851,1.40181 6.9475,4.29649 -0.0658,2.04171 -0.48378,4.12902 -1.25706,6.26191 -0.77328,2.13311 -1.51211,4.129 -2.21669,5.98768 -4.45273,12.35251 -8.89404,24.71635 -13.32376,37.09155 -4.42983,12.37534 -9.00819,24.69347 -13.73507,36.95443 -1.77881,5.22971 -3.5233,8.89393 -5.23351,10.99263 -1.71023,2.09874 -5.32872,3.6147 -10.85551,4.5479 -1.52356,0.22854 -2.86431,0.68562 -4.02224,1.37121 -1.15792,0.68562 -1.76735,1.87402 -1.8283,3.56518 0.0534,1.50455 0.58659,2.47201 1.59977,2.90242 1.01319,0.43042 2.18634,0.62087 3.51947,0.57135 3.20713,-0.0228 6.43712,-0.11417 9.68996,-0.27425 3.25283,-0.16003 6.48281,-0.25139 9.68997,-0.27424 3.01286,0.0381 5.99145,0.19041 8.9358,0.45708 2.94428,0.26662 5.87714,0.41897 8.7986,0.45707 1.36369,0.0116 2.65867,-0.33139 3.88516,-1.02842 1.22648,-0.69703 1.88172,-1.81687 1.96551,-3.3595 -0.20319,-2.56412 -1.62532,-3.93645 -4.26599,-4.11704 -2.64106,-0.18055 -5.28187,-0.60492 -7.9227,-1.27304 -2.64091,-0.66811 -4.0629,-3.01555 -4.26603,-7.04232 0.2618,-5.76476 2.29777,-14.32614 6.10786,-25.68417 3.81,-11.35796 7.82326,-22.37062 12.03971,-33.03801 4.21625,-10.66723 7.06476,-17.84723 8.54552,-21.54002 l 2.01118,87.02688 c -0.0503,2.68532 0.23221,4.81071 0.84565,6.37619 0.61305,1.56548 2.40323,2.36537 5.37056,2.39964 3.02034,-0.11805 5.38952,-1.16174 7.10753,-3.13096 1.71781,-1.96923 3.30984,-4.15555 4.77628,-6.55902 l 58.50548,-86.11273 -19.37991,72.76617 c -0.59041,3.13098 -1.46644,6.2848 -2.6281,9.46144 -1.16185,3.17667 -3.45478,5.1421 -6.87899,5.89626 -1.96164,0.1372 -4.16323,0.45708 -6.60478,0.95984 -2.44155,0.50281 -3.77466,2.01114 -3.99933,4.52505 0.0426,1.35217 0.50642,2.3044 1.39406,2.85671 0.88745,0.55228 1.94636,0.81893 3.17671,0.79988 4.21258,-0.0609 8.44819,-0.30472 12.70663,-0.73132 4.25825,-0.4266 8.49385,-0.67039 12.70663,-0.73132 4.3879,0.0609 8.7758,0.30472 13.1637,0.73132 4.3879,0.4266 8.7758,0.67037 13.1637,0.73132 1.62629,0.0457 3.08131,-0.22854 4.36507,-0.82274 1.28357,-0.5942 1.96145,-1.7826 2.03401,-3.56518 -0.15868,-2.19846 -1.26402,-3.46924 -3.31797,-3.81233 -2.05413,-0.34308 -4.10827,-0.82837 -6.16202,-1.45588 -2.05414,-0.62746 -3.16026,-2.46705 -3.31797,-5.51873 0.031,-2.21297 0.2893,-4.46026 0.77695,-6.74185 0.48746,-2.28153 1.02059,-4.48311 1.59977,-6.60471 l 18.64863,-74.77731 c 0.65117,-3.28703 1.49682,-5.85424 2.53676,-7.70171 1.03975,-1.84721 3.3021,-2.99751 6.78746,-3.45089 1.86256,-0.10663 3.66784,-0.48744 5.41642,-1.1427 1.7482,-0.65502 2.68519,-2.04148 2.81097,-4.15938 z"
         id="path4764"
         style="font-style:italic;font-variant:normal;font-weight:bold;font-stretch:normal;font-size:94.4806px;line-height:0%;font-family:'Garamond Book ITC';-inkscape-font-specification:'Garamond Book ITC Bold Italic';letter-spacing:0px;word-spacing:0px;fill:#000000;fill-opacity:1;stroke:none;stroke-width:1.93513" />
      <g
         aria-label="®"
         id="text17389"
         style="font-weight:bold;font-size:28.0731px;line-height:1.25;font-family:Impact;-inkscape-font-specification:'Impact Bold';stroke-width:0.701823">
        <path
           d="m 646.72585,118.00001 q 4.70169,0 7.73107,3.12532 3.04308,3.12533 3.04308,7.37467 0,4.33159 -3.08421,7.4158 Q 651.33159,139 647,139 q -4.35901,0 -7.4295,-3.0705 Q 636.5,132.8453 636.5,128.5 q 0,-3.05678 1.6175,-5.60639 1.6312,-2.56332 4.07114,-3.72846 2.43995,-1.16514 4.53721,-1.16514 z m 0.52089,2.04242 q -3.86554,0 -6.26436,2.54961 -2.39883,2.54961 -2.39883,5.90796 0,3.48173 2.48107,5.9628 2.48107,2.48106 5.9628,2.48106 3.46801,0 5.94908,-2.48106 2.48107,-2.48107 2.48107,-5.9628 0,-2.39882 -1.24739,-4.41383 -1.24739,-2.02872 -3.20757,-3.02938 -1.96018,-1.01436 -3.75587,-1.01436 z m -4.86619,14.06397 v -11.14425 h 5.27741 q 1.96019,0 2.85118,0.9184 0.89099,0.9047 0.89099,2.23434 0,1.28851 -0.75392,2.06984 -0.74021,0.78133 -2.24804,1.05548 0.68538,0.26045 1.0829,0.7128 0.41123,0.43864 1.28851,1.91905 l 1.30222,2.23434 h -2.78264 l -0.93211,-1.79569 q -0.83616,-1.60379 -1.48042,-2.17951 -0.63055,-0.58942 -1.65861,-0.58942 h -0.58943 v 4.56462 z m 2.24804,-6.3329 h 1.83682 q 1.38446,0 1.96018,-0.35639 0.58942,-0.37011 0.58942,-1.19256 0,-0.74021 -0.57572,-1.11032 -0.57571,-0.3701 -1.74086,-0.3701 h -2.06984 z"
           id="path37168" />
      </g>
    </g>
    <g
       id="g3758">
      <path
         style="color:#000000;display:inline;overflow:visible;visibility:visible;fill:#002255;fill-opacity:1;fill-rule:nonzero;stroke:none;stroke-width:2.48719;marker:none;enable-background:accumulate"
         d="M 56.540737,9 C 33.053949,9 14,29.041651 14,53.745926 14,78.450201 33.053949,98.46528 56.540737,98.46528 c 4.516689,0 8.875942,-0.754287 12.959263,-2.125698 V 74.019764 c -3.526213,2.156503 -7.652827,3.401115 -12.075102,3.401115 -12.924091,0 -23.392352,-10.598815 -23.392352,-23.674953 0,-13.076137 10.468261,-23.674952 23.392352,-23.674952 4.422275,0 8.548889,1.244611 12.075102,3.401116 V 11.125697 C 65.416679,9.7527011 61.057426,9 56.540737,9 Z"
         id="path3002" />
      <path
         id="polygon9367"
         style="fill:#002255"
         transform="matrix(0.31200351,0,0,0.30345896,14.35216,10.798945)"
         d="m 179.959,78.103 h 120.19096 l -48.07639,56.02075 H 179.959 Z" />
      <path
         id="polygon9369"
         style="fill:#ff0000"
         transform="matrix(0.31200351,0,0,0.30345896,14.35216,12.087871)"
         d="M 252.07357,146.353 H 179.959 v 56.02075 h 120.19096 z" />
      <path
         id="path3067"
         style="font-style:normal;font-weight:normal;font-size:87.3769px;line-height:125%;font-family:'Frutiger LT Std 55 Roman';-inkscape-font-specification:'Frutiger LT Std 55 Roman';letter-spacing:-1.24px;word-spacing:0px;fill:#002255;fill-opacity:1;stroke:none;stroke-width:0.915212"
         d="m 218.50001,87.5 c 6.96034,-0.04714 12.6633,-1.971251 17.1089,-5.772475 4.44552,-3.801214 6.74252,-9.196927 6.89109,-16.187155 -0.14856,-7.028875 -2.44557,-12.44813 -6.89109,-16.257806 -4.4456,-3.80959 -10.14856,-5.737113 -17.1089,-5.782564 -6.96041,0.04542 -12.66338,1.972979 -17.1089,5.782568 -4.44559,3.809675 -6.74259,9.228929 -6.89111,16.257802 0.14852,6.99023 2.44553,12.385943 6.89111,16.187155 4.44552,3.801222 10.14848,5.725378 17.1089,5.772475 z m 0,-10.172476 c -3.26242,-0.102584 -5.62876,-1.290051 -7.09901,-3.562391 -1.47033,-2.272307 -2.1931,-5.013896 -2.16833,-8.224763 -0.0248,-3.249526 0.698,-6.014657 2.16833,-8.295412 1.47025,-2.280709 3.83659,-3.471529 7.09901,-3.572483 3.26235,0.100959 5.62869,1.291776 7.09899,3.572484 1.47027,2.280754 2.19305,5.045885 2.16834,8.295411 0.0248,3.210869 -0.69807,5.952458 -2.16834,8.224764 -1.4703,2.272339 -3.83664,3.459803 -7.09899,3.56239 z" />
      <path
         id="path3069"
         style="font-style:normal;font-weight:normal;font-size:87.3769px;line-height:125%;font-family:'Frutiger LT Std 55 Roman';-inkscape-font-specification:'Frutiger LT Std 55 Roman';letter-spacing:-1.24px;word-spacing:0px;fill:#002255;fill-opacity:1;stroke:none;stroke-width:0.916953"
         d="m 246.5,86.499997 h 14.49066 V 68.957916 c 0.0199,-4.448623 0.74461,-7.731115 2.17359,-9.847491 1.42891,-2.116313 3.44147,-3.166183 6.03772,-3.149596 2.03772,0.04822 3.51697,0.828955 4.43778,2.342262 0.92072,1.513364 1.37355,3.470237 1.35849,5.870619 v 22.326287 h 14.49064 V 68.957916 c 0.0199,-4.448623 0.74461,-7.731115 2.17358,-9.847491 1.42882,-2.116313 3.44146,-3.166183 6.03775,-3.149596 2.03768,0.04822 3.51694,0.828955 4.43778,2.342262 0.92069,1.513364 1.37352,3.470237 1.35849,5.870619 v 22.326287 h 14.4906 V 62.02082 c 0.13747,-5.669583 -0.82186,-10.078359 -2.87799,-13.226335 -2.05629,-3.147897 -6.03446,-4.745948 -11.93461,-4.794172 -3.01562,-0.01653 -5.81979,0.614682 -8.41265,1.893756 -2.59297,1.279147 -4.75313,3.305788 -6.4805,6.079922 -1.16069,-2.704369 -2.88479,-4.711072 -5.17239,-6.020124 -2.28769,-1.308968 -4.93756,-1.960154 -7.94972,-1.953554 -3.34424,-0.0149 -6.35644,0.672827 -9.0365,2.063194 -2.6801,1.390445 -4.76649,3.57324 -6.25914,6.548379 H 259.7026 V 44.957162 H 246.5 Z" />
      <path
         id="path3071"
         style="font-style:normal;font-weight:normal;font-size:87.3769px;line-height:125%;font-family:'Frutiger LT Std 55 Roman';-inkscape-font-specification:'Frutiger LT Std 55 Roman';letter-spacing:-1.24px;word-spacing:0px;fill:#002255;fill-opacity:1;stroke:none;stroke-width:0.916957"
         d="m 323.5,86.499994 h 14.49068 V 68.957913 c 0.0196,-4.44862 0.74461,-7.731112 2.1736,-9.84749 1.42889,-2.116311 3.44144,-3.166183 6.03767,-3.149593 2.03773,0.04824 3.517,0.82895 4.43782,2.342258 0.92071,1.513365 1.37353,3.47024 1.35849,5.87062 v 22.326286 h 14.49063 V 68.957913 c 0.0196,-4.44862 0.7446,-7.731112 2.17358,-9.84749 1.42879,-2.116311 3.44146,-3.166183 6.03775,-3.149593 2.03769,0.04824 3.51693,0.82895 4.43777,2.342258 0.9207,1.513365 1.37351,3.47024 1.3585,5.87062 v 22.326286 h 14.49059 V 62.020818 c 0.13747,-5.669581 -0.82184,-10.078358 -2.87798,-13.226333 -2.05632,-3.147898 -6.03446,-4.745943 -11.93461,-4.794176 -3.01562,-0.0165 -5.8198,0.614682 -8.41265,1.89376 -2.59301,1.27915 -4.75316,3.305789 -6.4805,6.079921 -1.16072,-2.704368 -2.88482,-4.711072 -5.17242,-6.020123 -2.2877,-1.308965 -4.93753,-1.960155 -7.94973,-1.953558 -3.3442,-0.01489 -6.35645,0.672832 -9.03647,2.0632 -2.68007,1.390441 -4.76647,3.573239 -6.25914,6.548376 H 336.7026 V 44.957166 H 323.5 Z" />
      <path
         id="path3073"
         style="font-style:normal;font-weight:normal;font-size:87.3769px;line-height:125%;font-family:'Frutiger LT Std 55 Roman';-inkscape-font-specification:'Frutiger LT Std 55 Roman';letter-spacing:-1.24px;word-spacing:0px;fill:#002255;fill-opacity:1;stroke:none;stroke-width:0.915212"
         d="m 423.5,87.5 c 6.96038,-0.04713 12.66333,-1.971252 17.10892,-5.772476 4.4455,-3.801214 6.74251,-9.196927 6.89108,-16.187155 -0.14857,-7.028874 -2.44558,-12.44813 -6.89108,-16.257804 C 436.16333,45.472975 430.46038,43.545452 423.5,43.5 c -6.96042,0.04543 -12.66338,1.97298 -17.10892,5.782569 -4.44554,3.809673 -6.74257,9.228928 -6.89108,16.2578 0.14851,6.99023 2.44555,12.385943 6.89108,16.187155 4.44553,3.801222 10.1485,5.725379 17.10892,5.772476 z m 0,-10.172476 c -3.2624,-0.102584 -5.62873,-1.290052 -7.09901,-3.562389 -1.47032,-2.272309 -2.19308,-5.013897 -2.16831,-8.224766 -0.0248,-3.249524 0.69799,-6.014656 2.16831,-8.295412 1.47029,-2.280708 3.83662,-3.471529 7.09901,-3.572482 3.26235,0.100964 5.62869,1.291776 7.09901,3.572483 1.47026,2.280755 2.19304,5.045887 2.16832,8.295411 0.0248,3.210871 -0.69805,5.952459 -2.16832,8.224767 -1.47032,2.272336 -3.83666,3.459801 -7.09901,3.562388 z" />
      <path
         id="path3075"
         style="font-style:normal;font-weight:normal;font-size:87.3769px;line-height:125%;font-family:'Frutiger LT Std 55 Roman';-inkscape-font-specification:'Frutiger LT Std 55 Roman';letter-spacing:-1.24px;word-spacing:0px;fill:#002255;fill-opacity:1;stroke:none;stroke-width:0.912945"
         d="m 497.5,26.5 h -14.38717 v 23.695536 h -0.15897 c -1.83487,-2.364841 -3.94789,-4.019258 -6.3391,-4.963249 -2.3913,-0.943917 -5.02097,-1.397541 -7.88912,-1.360894 -5.74628,0.236865 -10.13133,2.464992 -13.15512,6.684384 -3.02381,4.219466 -4.54735,9.009263 -4.57052,14.369419 0.018,6.334171 1.63115,11.637643 4.8388,15.910438 3.20758,4.272802 7.90068,6.494254 14.07913,6.664366 3.36496,-0.06006 6.33247,-0.880577 8.9026,-2.461609 2.57006,-1.581035 4.34523,-3.562334 5.32561,-5.943902 h 0.15897 V 86.53937 H 497.5 Z m -31.71541,38.745407 c 0.0132,-2.846843 0.76174,-5.258423 2.24553,-7.234746 1.48373,-1.976264 3.6233,-3.006942 6.41862,-3.092022 2.65948,0.05841 4.77249,1.082403 6.3391,3.072014 1.56652,1.989662 2.368,4.594698 2.40446,7.815127 -0.0661,3.105389 -0.92735,5.640377 -2.58331,7.604984 -1.65604,1.964633 -3.70944,2.978628 -6.16025,3.041997 -2.72577,-0.0517 -4.84543,-1.089041 -6.35901,-3.112045 -1.51356,-2.022972 -2.28197,-4.721407 -2.30514,-8.095309 z" />
      <path
         id="path3077"
         style="font-style:normal;font-weight:normal;font-size:87.3769px;line-height:125%;font-family:'Frutiger LT Std 55 Roman';-inkscape-font-specification:'Frutiger LT Std 55 Roman';letter-spacing:-1.24px;word-spacing:0px;fill:#002255;fill-opacity:1;stroke:none;stroke-width:0.915213"
         d="m 526.00001,87.5 c 6.96036,-0.04712 12.66332,-1.971252 17.10889,-5.772479 4.44552,-3.801213 6.74254,-9.196928 6.8911,-16.187152 -0.14856,-7.028873 -2.44557,-12.448135 -6.8911,-16.257803 -4.44558,-3.80959 -10.14854,-5.737112 -17.10889,-5.782566 -6.96041,0.04545 -12.66338,1.972981 -17.10892,5.78257 -4.44555,3.809668 -6.74258,9.228928 -6.89109,16.257799 0.14851,6.990226 2.44554,12.385941 6.89109,16.187152 4.44554,3.801225 10.14851,5.725383 17.10892,5.772479 z m 0,-10.172478 c -3.26242,-0.102587 -5.62875,-1.290051 -7.09903,-3.562384 -1.4703,-2.272311 -2.19308,-5.013899 -2.16831,-8.224769 -0.0247,-3.249519 0.69801,-6.014654 2.16831,-8.295417 1.47028,-2.280703 3.83661,-3.471529 7.09903,-3.572475 3.26234,0.100969 5.62869,1.291774 7.09901,3.572476 1.47024,2.280762 2.19303,5.045897 2.16831,8.295416 0.0249,3.210872 -0.69807,5.95246 -2.16831,8.22477 -1.47032,2.272332 -3.83667,3.459793 -7.09901,3.562383 z" />
      <path
         id="path3079"
         style="font-style:normal;font-weight:normal;font-size:87.3769px;line-height:125%;font-family:'Frutiger LT Std 55 Roman';-inkscape-font-specification:'Frutiger LT Std 55 Roman';letter-spacing:-1.24px;word-spacing:0px;fill:#002255;fill-opacity:1;stroke:none;stroke-width:0.927253"
         d="m 585.5,44.484055 c -0.74079,-0.126013 -1.5375,-0.236944 -2.39009,-0.332791 -0.85266,-0.09574 -1.7104,-0.146174 -2.57316,-0.151264 -3.14102,0.03031 -5.70741,0.816884 -7.69917,2.359756 -1.99174,1.542957 -3.60211,3.660688 -4.83102,6.353184 h -0.16277 V 44.968109 H 554.5 V 87 h 14.64562 V 69.251405 c 0.0174,-4.148038 0.93909,-7.368333 2.76649,-9.660879 1.82724,-2.292503 4.45806,-3.455562 7.89238,-3.489213 0.8526,-0.0097 1.68997,0.0098 2.5121,0.06054 0.82208,0.0504 1.63916,0.191629 2.45115,0.423545 z" />
      <path
         id="path3081"
         style="font-style:normal;font-weight:normal;font-size:87.3769px;line-height:125%;font-family:'Frutiger LT Std 55 Roman';-inkscape-font-specification:'Frutiger LT Std 55 Roman';letter-spacing:-1.24px;word-spacing:0px;fill:#002255;fill-opacity:1;stroke:none;stroke-width:0.915913"
         d="m 629.49652,70.23848 v -2.664213 c 0.0875,-6.456996 -1.4759,-11.950254 -4.69037,-16.479784 -3.21452,-4.52946 -8.60559,-6.894288 -16.17326,-7.094483 -6.54469,0.04717 -11.83992,1.971289 -15.8857,5.772463 -4.0458,3.801251 -6.1282,9.196955 -6.24719,16.18713 0.14874,6.993579 2.4493,12.402737 6.90165,16.227493 4.45235,3.824763 10.16407,5.762372 17.13515,5.812831 2.66907,0.0049 5.28363,-0.20688 7.84368,-0.635777 2.55998,-0.428898 4.99607,-1.105044 7.30823,-2.028437 V 75.082509 c -2.15682,1.158878 -4.30862,1.989763 -6.45544,2.492658 -2.14688,0.502912 -4.19952,0.748478 -6.15794,0.736696 -3.51034,0.02691 -6.30671,-0.59204 -8.38908,-1.856877 -2.08241,-1.264819 -3.33185,-3.336982 -3.74831,-6.216506 z m -28.71723,-8.234842 c 0.14707,-2.485901 0.86434,-4.558069 2.15181,-6.216504 1.28742,-1.658374 3.21446,-2.519533 5.78111,-2.583481 2.8294,0.06398 4.86552,0.925109 6.10837,2.583481 1.24279,1.658434 1.85099,3.730601 1.82458,6.216504 z" />
      <path
         style="fill:#002255;fill-opacity:1;stroke-width:0.880428"
         d="m 164.13304,85.918566 c -6.21539,-1.592836 -10.84563,-4.188595 -14.87232,-8.33757 -3.98343,-4.104356 -5.76165,-7.85573 -6.83328,-14.415459 C 140.29855,50.133774 146.24769,38.185768 157.4595,32.97597 163.17672,30.319336 170.9036,29 178.55867,29 c 4.7876,0 8.89666,0.740038 12.90639,1.465687 l -1.32528,11.686258 c 0,0 -1.00615,-0.203651 -3.74521,-0.878463 -2.63008,-0.647954 -5.36313,-0.953154 -8.02567,-0.938362 -5.36642,0.02977 -10.44639,1.35954 -13.81928,3.802904 -8.03567,5.821159 -7.90432,21.05681 0.23667,27.452453 5.02736,3.949538 14.11929,5.2866 22.27897,3.276364 l 3.82349,-0.94198 1.11123,11.80712 c -2.33257,0.523251 -7.41395,1.459852 -13.58155,1.459852 -7.8944,0 -10.48558,-0.29945 -14.28539,-1.273267 z"
         id="path3064" />
      <g
         aria-label="®"
         id="text17389-5"
         style="font-weight:bold;font-size:28.0731px;line-height:1.25;font-family:Impact;-inkscape-font-specification:'Impact Bold';display:inline;stroke-width:0.701823"
         transform="translate(1.5,-76.50001)">
        <path
           d="m 646.72585,118.00001 q 4.70169,0 7.73107,3.12532 3.04308,3.12533 3.04308,7.37467 0,4.33159 -3.08421,7.4158 Q 651.33159,139 647,139 q -4.35901,0 -7.4295,-3.0705 Q 636.5,132.8453 636.5,128.5 q 0,-3.05678 1.6175,-5.60639 1.6312,-2.56332 4.07114,-3.72846 2.43995,-1.16514 4.53721,-1.16514 z m 0.52089,2.04242 q -3.86554,0 -6.26436,2.54961 -2.39883,2.54961 -2.39883,5.90796 0,3.48173 2.48107,5.9628 2.48107,2.48106 5.9628,2.48106 3.46801,0 5.94908,-2.48106 2.48107,-2.48107 2.48107,-5.9628 0,-2.39882 -1.24739,-4.41383 -1.24739,-2.02872 -3.20757,-3.02938 -1.96018,-1.01436 -3.75587,-1.01436 z m -4.86619,14.06397 v -11.14425 h 5.27741 q 1.96019,0 2.85118,0.9184 0.89099,0.9047 0.89099,2.23434 0,1.28851 -0.75392,2.06984 -0.74021,0.78133 -2.24804,1.05548 0.68538,0.26045 1.0829,0.7128 0.41123,0.43864 1.28851,1.91905 l 1.30222,2.23434 h -2.78264 l -0.93211,-1.79569 q -0.83616,-1.60379 -1.48042,-2.17951 -0.63055,-0.58942 -1.65861,-0.58942 h -0.58943 v 4.56462 z m 2.24804,-6.3329 h 1.83682 q 1.38446,0 1.96018,-0.35639 0.58942,-0.37011 0.58942,-1.19256 0,-0.74021 -0.57572,-1.11032 -0.57571,-0.3701 -1.74086,-0.3701 h -2.06984 z"
           id="path37168-3" />
      </g>
    </g>
    <path
       id="path15087-4"
       style="display:inline;fill:#ff2121;fill-opacity:1;stroke:none;stroke-width:1px;stroke-linecap:butt;stroke-linejoin:miter;stroke-opacity:1"
       d="M 814.09766,16.880859 C 806.12404,16.996676 797.53505,18.402412 796.5,19 c -0.736,0.42493 -1.65922,0.771521 -2.73047,1.078125 l 34.11524,0.316406 c -1.19903,-2.800207 -7.24451,-3.608703 -13.78711,-3.513672 z m -59.33008,6.833985 C 746.54329,24.373595 736.97227,25.229652 725.5,26.5 c -8.0517,0.891581 -11.12325,1.490876 -12.2207,3.828125 l 111.93945,1.042969 2.18945,-6.980469 z m 181.99804,3.802734 c -7.54978,0.131782 -15.17829,1.723869 -22.58593,4.681641 l 48.26758,0.451172 c -8.43988,-3.464737 -17.13492,-5.281997 -25.68165,-5.132813 z m 184.09958,1.5 c -7.7169,0.1347 -15.5127,1.809291 -23.0742,4.894531 l 49.2735,0.458985 c -8.6013,-3.60921 -17.4773,-5.505758 -26.1993,-5.353516 z m -408.79684,5.298828 -1.69141,6.011719 111.70899,1.041016 1.88281,-6.009766 z m 193.91602,1.806641 c -3.10225,1.712256 -6.11582,3.738775 -9.07032,5.943359 l 36.83203,0.34375 c 1.05346,-0.224362 2.13654,-0.37472 3.27149,-0.394531 1.40656,-0.02455 2.73443,0.171639 4.02734,0.462891 l 39.11719,0.365234 c -3.03237,-2.309954 -6.15924,-4.318204 -9.34375,-6.115234 z m 183.75192,1.712891 c -3.0782,1.720322 -6.0712,3.737264 -9.0019,5.943359 l 36.3711,0.339844 c 1.2828,-0.336692 2.604,-0.578945 4.0117,-0.603516 1.7405,-0.03038 3.374,0.239135 4.9414,0.6875 l 38.5098,0.359375 c -3.0037,-2.309295 -6.1045,-4.310733 -9.2598,-6.115234 z m -380.48239,6.482421 -1.70118,6.048829 111.38672,1.039062 1.89649,-6.048828 z m 182.66992,1.701172 c -2.14928,1.871098 -4.24393,3.86697 -6.26953,6.007813 l 35.09375,0.326172 c 1.56676,-2.361363 3.29653,-4.396329 5.21484,-6.015625 z m 56.99609,0.53125 c 1.9487,1.665299 3.74363,3.704144 5.36524,6.115235 l 37.02148,0.345703 c -2.03733,-2.17633 -4.13342,-4.216737 -6.29297,-6.123047 z m 126.87498,1.183594 c -2.1353,1.872377 -4.2164,3.86833 -6.2285,6.007813 l 35.1309,0.326171 c 1.5406,-2.357826 3.2489,-4.381159 5.1328,-6.017578 z m 57.4785,0.535156 c 1.9054,1.676125 3.6573,3.721003 5.2461,6.115235 l 37.0899,0.345703 c -2.0232,-2.174806 -4.1031,-4.217469 -6.2481,-6.125 z m -426.84176,6.087891 -1.78906,6.357422 103.74219,0.966797 C 808.80298,61.654524 811,61.5 811,61.5 c 4.29538,-0.498175 4.98359,-0.66194 6.5,-5.5 l 0.18945,-0.605469 z m 175.76172,1.636719 c -1.69835,2.006923 -3.32633,4.123536 -4.90625,6.330078 l 38.29492,0.357422 c 0.86012,-2.247314 1.79187,-4.380239 2.81445,-6.34961 z m 74.42578,0.695312 c 1.0749,2.001131 2.08445,4.123403 3.00586,6.402344 l 40.29492,0.375 c -1.58818,-2.241943 -3.24166,-4.378351 -4.94726,-6.419922 z m 109.48636,1.019531 c -1.6879,2.006573 -3.3033,4.125527 -4.8731,6.330078 l 38.3535,0.357422 c 0.855,-2.255873 1.7995,-4.369599 2.8164,-6.349609 z m 74.7187,0.697266 c 1.0652,2.003779 2.0652,4.125061 2.9785,6.402344 l 40.3848,0.376953 c -1.5842,-2.249135 -3.2451,-4.373082 -4.9473,-6.421875 z m -437.30272,6.298828 -1.71875,6.107422 19.58789,0.183594 c 11.02606,-2.230597 27.41816,-4.166899 43.31446,-5.720703 z m 170.9336,1.591797 c -1.25219,1.937283 -2.40121,4.019697 -3.55664,6.091797 l 41.54297,0.388672 c 0.54761,-2.111733 1.16205,-4.125912 1.80859,-6.109375 z m 86.6289,0.808594 c 0.6946,1.989955 1.3436,4.028924 1.94532,6.142578 l 43.25,0.404297 c -1.1871,-2.141792 -2.4576,-4.159537 -3.7441,-6.160156 z m 97.34372,0.90625 c -1.2488,1.942078 -2.4048,4.014976 -3.5566,6.091797 l 41.6172,0.388672 c 0.5428,-2.109161 1.1501,-4.124498 1.791,-6.107422 z m 86.836,0.810547 c 0.6891,1.989657 1.3287,4.031212 1.9258,6.142578 l 43.3007,0.404297 c -1.1799,-2.139653 -2.4396,-4.160729 -3.7187,-6.160157 z m -444.58401,5.980468 -1.68164,5.984375 12.57812,0.117188 1.7793,-5.982422 z m 168.07422,1.566407 c -0.97867,1.935608 -1.90438,3.933056 -2.79493,5.974609 l 44.29688,0.412109 c 0.37355,-2.027683 0.77624,-4.01836 1.2207,-5.988281 z m 95.39648,0.890625 c 0.49607,1.971551 0.9271,3.986634 1.35547,6.011718 l 45.69924,0.425782 c -0.9043,-2.075128 -1.8771,-4.060125 -2.8692,-6.027344 z m 88.60161,0.824218 c -0.9754,1.939109 -1.9079,3.929645 -2.795,5.97461 l 44.3594,0.414062 c 0.3707,-2.026605 0.7659,-4.02025 1.207,-5.990234 z m 95.5585,0.890625 c 0.4927,1.97095 0.9165,3.990371 1.3418,6.013672 l 45.7403,0.425781 c -0.8983,-2.072051 -1.86,-4.060503 -2.8457,-6.02539 z m -450.4355,5.802735 -1.83008,6.509765 27.33789,0.25586 C 718.49613,90.81235 713.11964,88.195378 711.5957,84.904297 Z m 166.43359,1.550781 c -0.83557,2.11991 -1.6322,4.281407 -2.36914,6.505859 l 46.67188,0.435547 c 0.28114,-2.180149 0.57281,-4.352247 0.92187,-6.519531 z m 102.03907,0.951172 c 0.41068,2.17383 0.77335,4.357699 1.11718,6.539062 l 47.76956,0.445313 c -0.7478,-2.244933 -1.5615,-4.411309 -2.4063,-6.550781 z m 81.98244,0.763672 c -0.8326,2.123924 -1.6374,4.277386 -2.3711,6.505859 l 46.7226,0.435547 c 0.2789,-2.178913 0.5656,-4.352397 0.9122,-6.519531 z m 102.1543,0.953125 c 0.4082,2.173936 0.7755,4.35674 1.1172,6.537109 l 47.7988,0.447266 c -0.7428,-2.242609 -1.5453,-4.413062 -2.3848,-6.550781 z m -455.56252,6.28125 -1.76172,6.261716 99.63672,0.92774 c -6.31897,-2.547188 -13.45662,-4.751978 -21.58204,-6.478519 z m 165.78906,1.544922 c -0.60559,2.046395 -1.16823,4.133404 -1.6875,6.261714 l 48.46094,0.45313 c 0.18265,-2.07369 0.38302,-4.162985 0.61914,-6.273438 z m 107.34765,1 c 0.29717,2.109204 0.59671,4.221144 0.83985,6.287114 l 49.33206,0.45898 c -0.5326,-2.15259 -1.144,-4.22368 -1.7617,-6.292969 z m 76.69341,0.714843 c -0.6029,2.049981 -1.1731,4.131751 -1.6895,6.263671 l 48.5,0.45117 c 0.1809,-2.07126 0.3851,-4.16245 0.6191,-6.271481 z m 107.4355,1.001953 c 0.2961,2.114228 0.5882,4.217478 0.8301,6.287108 l 49.3594,0.45899 c -0.5286,-2.15091 -1.1286,-4.22695 -1.7422,-6.294926 z m -460.14844,5.990238 -1.6875,6.00195 121.3418,1.13086 c -3.00307,-2.15003 -6.34898,-4.19171 -10.02344,-6.11133 z m 166.05274,1.54687 c -0.41654,1.9575 -0.75027,3.98559 -1.0918,6.00781 l 49.8457,0.46485 c 0.11024,-2.00833 0.18807,-3.91452 0.34375,-6.01563 z m 111.17773,1.03711 c 0.21577,2.08079 0.38824,4.0438 0.55664,6.02344 l 50.56443,0.4707 c -0.3597,-2.07282 -0.8494,-4.02621 -1.2851,-6.03125 z m 72.88277,0.67774 c -0.414,1.96044 -0.7529,3.98458 -1.0918,6.00976 l 49.8711,0.46484 c 0.1088,-2.0044 0.1918,-3.91725 0.3457,-6.01562 z m 111.2364,1.0371 c 0.2139,2.07769 0.3898,4.0481 0.5566,6.02344 l 50.5742,0.47266 c -0.3563,-2.07056 -0.8354,-4.02815 -1.2675,-6.03125 z m -464.16018,5.69336 -1.68555,5.99219 135.5332,1.26367 c -1.86227,-2.06839 -3.94906,-4.09351 -6.24414,-6.0664 z m 167.04687,1.55664 c -0.27296,1.94368 -0.39753,4.00407 -0.59961,6.00391 l 50.68945,0.47266 c 0.0522,-1.93482 0.15794,-3.89396 0.25,-6.00781 z m 113.91992,1.0625 c 0.1636,2.2085 0.27892,4.0203 0.39258,6.01172 l 51.15041,0.47657 c -0.2203,-2.04621 -0.5168,-4.02826 -0.8086,-6.01563 z m 70.15239,0.65235 c -0.2703,1.94466 -0.3944,4.00316 -0.5938,6.00391 l 50.707,0.47265 c 0.051,-1.94193 0.1509,-3.88041 0.2422,-6.00586 z m 113.9668,1.0625 c 0.1632,2.22043 0.2719,4.01573 0.3847,6.01367 l 51.168,0.47656 c -0.2177,-2.04906 -0.5211,-4.02738 -0.8106,-6.01758 z M 686.41992,125.50391 686,127 c -0.4635,1.64801 1.36626,4.20419 3.84766,4.79492 l 140.79101,1.3125 c -1.24202,-2.10941 -2.69209,-4.21011 -4.28711,-6.29883 z m 168.85938,1.57421 c -0.15469,2.05252 -0.24582,4.14746 -0.32422,6.25586 l 51.23633,0.47852 c 0.002,-1.73869 0.0719,-4.15415 0.10547,-6.25977 z m 115.51758,1.07618 c 0.10802,2.32161 0.23404,4.46261 0.28906,6.26172 l 51.38086,0.48046 c -0.096,-2.10278 -0.1782,-4.21671 -0.3477,-6.26367 z m 68.56052,0.63867 c -0.1517,2.05118 -0.231,4.15094 -0.3066,6.25781 l 51.2363,0.47656 c 0,-1.72426 0.073,-4.16434 0.1055,-6.25781 z m 115.5508,1.07812 c 0.1083,2.35406 0.2293,4.45625 0.2832,6.26172 l 51.3867,0.47852 c -0.094,-2.10403 -0.1807,-4.21346 -0.3476,-6.26172 z m -427.07617,6.27735 c 8.76205,1.49363 17.16972,3.5041 24.86133,6.25976 l 82.67969,0.76953 c -0.746,-1.99596 -1.6219,-4.00612 -2.63477,-6.05078 z m 127.04297,1.18554 c -0.0247,1.80316 -0.14348,3.54084 -0.11133,5.38282 0.004,0.22014 0.0305,0.42302 0.0352,0.64258 l 51.50976,0.48046 c -0.0108,-0.55007 -0.0459,-1.62967 -0.0527,-2.02343 -0.0136,-0.77896 -0.0221,-2.63501 -0.0371,-4.00391 z m 116.3125,1.08399 c 0.0127,0.63599 0.0509,1.82473 0.0586,2.26562 0.0128,0.73184 0.0206,2.50679 0.0352,3.76172 l 51.3515,0.47852 c 0.021,-1.7237 0.1362,-3.38154 0.1055,-5.14063 -0.01,-0.30311 -0.042,-0.58275 -0.049,-0.88476 z m 67.7813,0.63086 c -0.022,1.73203 -0.1364,3.39824 -0.1055,5.16601 0.01,0.29441 0.04,0.56601 0.047,0.85938 l 51.5019,0.48047 c -0.013,-0.62607 -0.049,-1.80272 -0.057,-2.23828 -0.013,-0.73716 -0.021,-2.52145 -0.035,-3.78907 z m 116.3242,1.08398 c 0.011,0.55888 0.046,1.65013 0.053,2.04883 0.014,0.77402 0.022,2.62173 0.037,3.97852 l 51.3457,0.47851 c 0.024,-1.79418 0.1414,-3.52286 0.1094,-5.35547 0,-0.22951 -0.032,-0.44103 -0.037,-0.66992 z m -392.99417,6.36328 c 3.67259,1.83727 7.08296,3.92121 10.17383,6.29493 l 65.89843,0.61523 c -0.41009,-1.99841 -0.93968,-4.07014 -1.58984,-6.21484 z m 92.72265,0.86524 c 0.0925,2.08457 0.17937,4.17328 0.34375,6.20312 l 51.32422,0.47852 c -0.10688,-2.33525 -0.22592,-4.41131 -0.27929,-6.20313 z m 116.29493,1.08398 c -10e-4,1.70637 -0.0741,4.12988 -0.10547,6.19922 l 51.04106,0.47461 c 0.1491,-2.03098 0.2242,-4.11173 0.2988,-6.19726 z m 67.81639,0.63281 c 0.095,2.08266 0.1769,4.17522 0.3438,6.20313 l 51.3222,0.47852 c -0.1066,-2.3031 -0.2288,-4.41773 -0.2832,-6.20313 z m 116.2793,1.08204 c 0,1.72027 -0.073,4.11842 -0.1055,6.19922 l 51.0235,0.47656 c 0.1521,-2.03296 0.2391,-4.10953 0.3164,-6.19727 z m -378.22851,6.67578 c 1.93778,1.9142 3.70887,3.9729 5.26563,6.21484 l 57.32422,0.53516 c -0.12829,-1.88361 -0.35183,-3.93765 -0.6836,-6.17383 z m 78.53907,0.73242 c 0.22225,2.10305 0.53232,4.13273 0.83007,6.17383 l 50.74024,0.47265 c -0.16785,-2.27813 -0.28157,-4.1257 -0.39649,-6.16992 z m 115.41992,1.07422 c -0.052,1.99114 -0.15371,3.97916 -0.24805,6.16406 l 50.35157,0.4707 c 0.2782,-1.99459 0.4059,-4.10652 0.6094,-6.16015 z m 68.70902,0.64062 c 0.2249,2.1009 0.5297,4.13491 0.83,6.17383 l 50.7305,0.47461 c -0.1683,-2.26704 -0.2885,-4.13135 -0.4043,-6.16992 z m 115.3867,1.07618 c -0.053,1.98367 -0.1627,3.99145 -0.2578,6.16406 l 50.334,0.46875 c 0.2811,-1.99484 0.4127,-4.10611 0.6191,-6.16016 z m -370.29885,6.71484 c 1.05039,1.94749 1.95223,4.01821 2.71875,6.20117 l 52.14063,0.48633 C 839.85645,172.84438 840,171.89443 840,171 c 0,-0.82728 -0.0824,-2.30077 -0.10352,-3.41406 z m 72.15235,0.67187 c 0.36674,2.12533 0.86198,4.13333 1.30859,6.1875 l 49.83399,0.46485 c -0.22143,-2.13497 -0.40062,-4.15157 -0.57227,-6.17969 z m 113.57226,1.0586 c -0.11209,2.05775 -0.19367,4.01606 -0.35351,6.17187 l 49.09765,0.45899 c 0.4276,-2.00884 0.7706,-4.08902 1.1191,-6.16602 z m 70.55664,0.6582 c 0.3702,2.12721 0.8759,4.13174 1.3262,6.1875 l 49.8066,0.46484 c -0.2233,-2.13867 -0.397,-4.14862 -0.5703,-6.18164 z m 113.5313,1.05859 c -0.1137,2.06192 -0.1938,4.01316 -0.3555,6.17188 l 49.0723,0.45703 c 0.4301,-2.00583 0.7678,-4.09008 1.1191,-6.16406 z m -365.88677,6.76368 c 0.49242,1.95218 0.87549,3.99375 1.14454,6.12695 l 48.18554,0.44922 c 0.54559,-2.06809 0.97831,-4.1078 1.27344,-6.10352 z m 70.40821,0.65625 c 0.51886,2.09672 1.11308,4.11511 1.71289,6.13281 l 48.43555,0.45117 c -0.28801,-2.05329 -0.58154,-4.11108 -0.81836,-6.12305 z m 110.74218,1.0332 c -0.17801,2.01955 -0.37292,4.05464 -0.60156,6.10937 l 47.41794,0.44336 c 0.5882,-1.996 1.1384,-4.02778 1.6446,-6.10156 z m 73.40428,0.68359 c 0.523,2.09927 1.1283,4.113 1.7324,6.13282 l 48.3965,0.45117 c -0.2897,-2.05274 -0.5799,-4.11057 -0.8183,-6.12305 z m 110.6739,1.03125 c -0.1798,2.02195 -0.371,4.05515 -0.6016,6.11133 l 47.3808,0.44141 c 0.5908,-1.99265 1.1356,-4.0292 1.6446,-6.09961 z m -363.7188,6.72657 c 0.066,1.1748 0.125,2.35648 0.125,3.58398 0,1.14284 -0.0726,2.26277 -0.16797,3.375 l 43.86133,0.4082 c 1.05399,-2.33493 1.96157,-4.64319 2.72656,-6.93359 z m 71.8457,0.66992 c 0.79484,2.39567 1.66138,4.70662 2.56641,6.98242 L 911.19922,195.5 c -0.44079,-2.31548 -0.82465,-4.64434 -1.18945,-6.96875 z m 106.68946,0.99414 c -0.29828,2.32485 -0.61658,4.63937 -0.99219,6.94922 l 45.17383,0.42187 c 0.8951,-2.25508 1.7423,-4.56164 2.5254,-6.93555 z m 77.47654,0.72265 c 0.8002,2.39815 1.6791,4.70479 2.5899,6.98243 l 46.3593,0.43164 c -0.4432,-2.31456 -0.8224,-4.64402 -1.1894,-6.96875 z m 106.5938,0.99219 c -0.3008,2.32667 -0.6235,4.64077 -1.002,6.95117 l 45.1328,0.41993 c 0.8986,-2.25157 1.7406,-4.56509 2.5274,-6.93555 z m -363.19339,7.57422 c -0.39996,2.08682 -0.98946,4.10666 -1.70899,6.07813 l 40.80079,0.3789 c 1.25192,-2.02034 2.42626,-4.04347 3.4707,-6.06055 z m 76.62305,0.71484 c 0.92598,2.11086 1.93027,4.12053 2.94726,6.11914 l 44.09961,0.41211 c -0.50982,-2.00337 -0.96108,-4.04496 -1.40039,-6.10546 z m 100.7832,0.93946 c -0.38342,2.06166 -0.80256,4.07981 -1.25977,6.08008 l 42.64061,0.39843 c 0.9992,-1.95886 1.9312,-3.99821 2.8399,-6.0664 z m 83.40624,0.77734 c 0.9321,2.11387 1.9472,4.12024 2.9707,6.1211 l 44.0469,0.41015 c -0.5135,-2.00464 -0.9715,-4.04437 -1.4141,-6.10742 z m 100.6543,0.9375 c -0.3866,2.06371 -0.8126,4.08097 -1.2734,6.08203 l 42.5918,0.39649 c 1.0023,-1.95495 1.9278,-4.00206 2.8398,-6.06641 z m -364.86132,6.69336 c -1.05792,2.17005 -2.38694,4.22386 -3.79883,6.24219 l 38.98047,0.36328 c 1.65985,-2.06565 3.19707,-4.14149 4.63867,-6.23438 z m 85.02148,0.79102 c 1.22986,2.19999 2.55171,4.26466 3.88672,6.31445 l 41.30664,0.38477 c -0.72502,-2.03838 -1.40549,-4.12409 -2.03125,-6.29688 z m 93.55469,0.87304 c -0.5697,2.16817 -1.21343,4.2305 -1.88867,6.25977 l 39.60742,0.36914 c 1.3012,-1.98639 2.5004,-4.11398 3.6992,-6.24414 z m 90.65625,0.84375 c 1.2373,2.20224 2.5713,4.26344 3.9141,6.31446 l 41.2461,0.38476 c -0.7307,-2.03828 -1.4183,-4.12206 -2.0489,-6.29687 z m 93.3906,0.8711 c -0.5744,2.16989 -1.2254,4.23085 -1.9062,6.25976 l 39.5234,0.36914 c 1.3097,-1.98813 2.5217,-4.1111 3.7285,-6.24414 z m -369.37107,6.83593 c -1.77335,2.09397 -3.70713,4.10655 -5.81445,6.01954 l 38.69922,0.36132 c 2.01231,-1.98102 3.95021,-3.98179 5.75,-6.02148 z m 98.3457,0.91602 c 1.52319,2.12083 3.08381,4.18044 4.71289,6.11914 l 38.28711,0.35547 c -1.03928,-1.91389 -2.02713,-3.92736 -2.92382,-6.10156 z m 83.69532,0.7793 c -0.83295,2.12451 -1.70789,4.18269 -2.68946,6.05078 l 36.11719,0.33594 c 1.63215,-1.91664 3.20251,-3.92902 4.72656,-6.0293 z m 100.57225,0.9375 c 1.5274,2.11475 3.0819,4.18667 4.7149,6.11914 l 38.2226,0.35742 c -1.0491,-1.91156 -2.0443,-3.92741 -2.9492,-6.10352 z m 83.4317,0.77929 c -0.8417,2.12539 -1.7249,4.18418 -2.7168,6.04883 l 36.0527,0.33594 c 1.6432,-1.91797 3.2271,-3.92791 4.7617,-6.03125 z m -376.71684,6.5625 c -2.659,2.04873 -5.43767,4.01069 -8.4043,5.82032 l 40.74023,0.38086 c 2.44114,-1.89427 4.75484,-3.84291 6.97657,-5.83399 z m 117.43554,1.09375 c 1.99253,2.1146 4.03998,4.09965 6.14844,5.95704 l 36.09375,0.33593 c -1.91444,-1.62296 -3.68185,-3.60401 -5.28125,-5.94726 z m 70.18946,0.6543 c -1.54477,2.29127 -3.24244,4.27517 -5.125,5.85156 l 34.04296,0.31836 c 2.10035,-1.8249 4.15394,-3.75944 6.13672,-5.84179 z m 114.11524,1.06445 c 2.007,2.11658 4.07,4.10046 6.1933,5.95703 l 36.0997,0.33594 c -1.9524,-1.60629 -3.7464,-3.59897 -5.375,-5.94922 z m 69.8359,0.65039 c -1.5715,2.29513 -3.2912,4.29235 -5.209,5.85157 l 34.0469,0.3164 c 2.1139,-1.82358 4.1818,-3.75824 6.1778,-5.84179 z m -387.02536,6.29297 c -4.36556,2.25785 -8.91728,4.25377 -13.55274,6.05078 l 46.52149,0.4336 c 3.31796,-1.93391 6.47516,-3.97274 9.5039,-6.08985 z m 143.90234,1.33985 c 3.12516,2.37448 6.34756,4.43759 9.63281,6.26758 l 64.1211,0.59765 c 3.19405,-1.74151 6.293,-3.82764 9.33203,-6.08984 l -36.96094,-0.34571 c -0.98899,0.19739 -2.00818,0.31939 -3.06836,0.3379 -1.31514,0.023 -2.5617,-0.14652 -3.77734,-0.4004 z m 184.41012,1.71875 c 3.1543,2.37424 6.4022,4.44633 9.7168,6.26757 l 63.3789,0.5918 c 3.2183,-1.73254 6.3373,-3.82977 9.4004,-6.08984 l -38.414,-0.35742 c -0.4468,0.0423 -0.8757,0.12868 -1.336,0.13672 -0.8847,0.0154 -1.7368,-0.0624 -2.5761,-0.17383 z m -353.04684,6.88672 c -9.63309,2.93674 -19.15271,4.88521 -27.67773,5.875 l 64.66992,0.60156 c 4.67104,-1.80172 9.07392,-3.84825 13.33789,-6.00781 z m 186.76563,1.74218 c 8.28299,3.32774 16.80435,5.0642 25.18164,4.91797 7.34641,-0.12823 14.76294,-1.67246 21.98242,-4.47851 z m 184.61721,1.72071 c 8.1199,3.18899 16.462,4.84043 24.664,4.69726 7.136,-0.12456 14.3338,-1.6164 21.3575,-4.26953 z m -415.69143,6.25586 C 682.1647,260.65383 681.6298,264 691,264 h 38 c 8.93619,-1.13034 17.38236,-2.94793 25.3418,-5.30664 z" />
  </g>
</svg>
